<svg viewBox="0 0 57 60" fill="none" xmlns="http://www.w3.org/2000/svg"><g clip-path="url(#a)" fill="#704699"><path fill-rule="evenodd" clip-rule="evenodd" d="M26.314 9.144v8.797h-3.733V9.144c0-.688-.903-1.595-1.587-1.595h-.56c-.684 0-1.587.907-1.587 1.595v8.797h-3.733V9.144c0-.688-.903-1.595-1.587-1.595h-.56c-.684 0-1.586.907-1.586 1.595v8.797H0v2.739h11.38v11.535c0 .688.902 1.595 1.586 1.595h.56c.684 0 1.587-.907 1.587-1.595V20.68h3.733v4.033c0 .688.903 1.595 1.587 1.595h.56c.684 0 1.587-.907 1.587-1.595V20.68h3.733v11.535c0 .688.903 1.595 1.587 1.595h.56c.684 0 1.587-.907 1.587-1.595V20.68h3.733v4.033c0 .688.903 1.595 1.587 1.595h.56c.684 0 1.587-.907 1.587-1.595V20.68h3.733v11.535c0 .688.903 1.595 1.587 1.595h.56c.684 0 1.586-.907 1.586-1.595V20.68H57v-2.738H44.981V9.144c0-.688-.902-1.595-1.586-1.595h-.56c-.684 0-1.587.907-1.587 1.595v8.797h-3.733V9.144c0-.688-.903-1.595-1.587-1.595h-.56c-.684 0-1.587.907-1.587 1.595v8.797h-3.733V9.144c0-.688-.903-1.595-1.587-1.595h-.56c-.684 0-1.587.907-1.587 1.595m7.467 22.509v.562c0 .688.903 1.595 1.587 1.595h.56c.684 0 1.587-.907 1.587-1.595v-.562c0-.688-.903-1.595-1.587-1.595h-.56c-.684 0-1.587.907-1.587 1.595m-14.933 0v.562c0 .688.902 1.595 1.586 1.595h.56c.684 0 1.587-.907 1.587-1.595v-.562c0-.688-.903-1.595-1.587-1.595h-.56c-.684 0-1.587.907-1.587 1.595M40.875 1.64c0 2.205 1.375 2.157 2.893 2.157q1.122.002 2.242-.002c2.808-.016 2.332 2.22 2.332 4.504 0 .84-.109 1.456.212 2.037.996 1.803 3.521.82 3.521-.63V5.204c0-1.213-.635-2.307-1.319-3.177-.462-.589-1.096-1.08-1.758-1.422-1.637-.844-4.389-.56-6.537-.56-.684 0-1.586.907-1.586 1.595M4.287 5.205v4.501c0 .688.903 1.595 1.587 1.595 2.194 0 2.147-1.382 2.147-2.908 0-2.231-.482-4.602 2.236-4.599.953.002 3.593.168 4.271-.21 1.794-1 .816-3.538-.627-3.538-2.12 0-4.843-.276-6.475.529-.54.266-.76.473-1.167.796-.476.378-.541.479-.907.965a6 6 0 0 0-.508.802c-.208.408-.557 1.455-.557 2.067m36.588 33.95v.563c0 .688.902 1.595 1.586 1.595h4.48c1.255 0 2.993-.91 3.775-1.929.13-.17.169-.194.294-.36.163-.216.39-.6.5-.811.216-.418.565-1.443.565-2.059v-4.501c0-.688-.903-1.595-1.587-1.595-.713 0-1.38.018-1.9.904-1.03 1.75 1.305 6.607-2.483 6.603-.952-.002-3.593-.168-4.271.21-.403.224-.96.821-.96 1.38M4.287 35.844c.065.871.214 1.676.526 2.315.39.8 1.054 1.552 1.752 2.085.702.536 1.924 1.07 2.856 1.07h4.48c.684 0 1.586-.907 1.586-1.595 0-.717-.018-1.387-.899-1.91-1.366-.81-4.703.463-5.989-.828-1.273-1.28-.05-4.615-.791-5.958-.996-1.802-3.52-.82-3.52.63z"/><path d="M12.457 55.713q0 .902-.299 1.693-.3.79-.907 1.362-.608.57-1.535.901-.927.33-2.203.33a8.3 8.3 0 0 1-1.734-.17 7.7 7.7 0 0 1-1.465-.46 7 7 0 0 1-1.206-.661 7.6 7.6 0 0 1-.937-.751l1.575-1.723a6.6 6.6 0 0 0 1.714 1.082q.897.38 2.033.38.718 0 1.196-.16.48-.16.768-.41.29-.25.399-.581t.11-.651q0-.621-.33-1.022a2.6 2.6 0 0 0-.877-.67 7 7 0 0 0-1.246-.462l-1.425-.39a15 15 0 0 1-1.425-.47q-.697-.272-1.246-.692a3.1 3.1 0 0 1-.877-1.052q-.33-.63-.33-1.572 0-.88.32-1.623.318-.741.927-1.271.607-.53 1.515-.832.906-.3 2.083-.3 1.615 0 2.92.53 1.305.532 2.263 1.353l-1.455 1.823q-.957-.761-1.864-1.082a5.5 5.5 0 0 0-1.844-.32q-1.256 0-1.814.44t-.558 1.082q0 .52.328.861.33.34.878.57.547.231 1.246.401.697.17 1.425.381.727.21 1.425.5.697.292 1.246.762.548.47.877 1.172.33.701.33 1.702m5.92 4.207q-2.47 0-3.737-1.212t-1.266-3.535v-9.415h2.392v9.395q0 1.382.598 1.973.598.59 2.014.59zm-.338-10.156v2.204h-3.81v-2.204zm.677 5.008q0-1.162.37-2.113a4.6 4.6 0 0 1 1.046-1.623 4.7 4.7 0 0 1 1.634-1.041 5.8 5.8 0 0 1 2.113-.37q1.157 0 2.103.37a4.7 4.7 0 0 1 1.625 1.041q.677.671 1.047 1.623.368.95.368 2.113 0 1.161-.368 2.123a4.7 4.7 0 0 1-1.047 1.643 4.65 4.65 0 0 1-1.625 1.051q-.946.37-2.103.37-1.156 0-2.113-.37a4.6 4.6 0 0 1-1.634-1.051 4.7 4.7 0 0 1-1.047-1.643 5.9 5.9 0 0 1-.369-2.123m2.392.02q0 1.403.748 2.183.747.782 2.003.782t2.014-.782.757-2.183-.757-2.183-2.014-.782-2.003.782q-.748.78-.748 2.183m8.831-9.034h2.392v10.156l4.506-6.15h2.85L36 54.772l3.608 5.008h-2.83l-2.193-3.065-2.253 3.065H29.94zm16.925 7.612a2.43 2.43 0 0 0-.967-1.142q-.648-.4-1.545-.4t-1.535.4a2.45 2.45 0 0 0-.957 1.142zm-2.512 4.386q1.514 0 2.252-1.081h2.612q-.498 1.522-1.764 2.404-1.266.88-3.08.88-1.156 0-2.113-.37a4.6 4.6 0 0 1-1.635-1.051 4.7 4.7 0 0 1-1.046-1.643 5.9 5.9 0 0 1-.37-2.123q0-1.162.37-2.113a4.6 4.6 0 0 1 1.046-1.623 4.7 4.7 0 0 1 1.635-1.041 5.8 5.8 0 0 1 2.113-.37q1.155 0 2.103.37a4.7 4.7 0 0 1 1.624 1.041q.678.671 1.047 1.623.369.95.369 2.113a8 8 0 0 1-.04.801H41.68q.199 1.042.897 1.613.697.57 1.774.57m11.103 2.164q-2.472 0-3.737-1.212t-1.266-3.535v-9.415h2.392v9.395q0 1.382.598 1.973.598.59 2.013.59zm-.339-10.156v2.204H51.31v-2.204z"/></g><defs><clipPath id="a"><path fill="#704699" d="M0 0h57v60H0z"/></clipPath></defs></svg>